<svg width="201" height="111" viewBox="0 0 201 111" fill="none" xmlns="http://www.w3.org/2000/svg">
<path fill-rule="evenodd" clip-rule="evenodd" d="M94.8154 46.2128C90.1229 46.2128 86.2763 42.3661 86.2763 37.6737V27.0404H95.5778C96.2589 26.4142 96.9644 25.8185 97.6963 25.2554H84.4891V37.6737C84.4891 43.3522 89.1348 47.9999 94.8133 47.9999H95.651C96.4114 47.9308 97.1352 47.8474 97.8203 47.7478C119.274 44.6351 105.491 26.5789 116.511 23.8606C109.85 23.4072 104.572 23.8728 100.675 25.2554C99.3126 25.7392 98.1212 26.3329 97.0965 27.0404C92.3634 30.3077 91.231 35.9699 93.6972 44.0211C95.5066 38.4564 98.8816 33.583 103.352 29.9498C103.93 29.4802 104.526 29.0329 105.138 28.6059C106.288 27.8049 107.5 27.0811 108.765 26.4407C107.476 27.262 106.264 28.177 105.138 29.1772C104.515 29.7282 103.92 30.3056 103.352 30.9074C99.3858 35.0977 96.7529 40.4286 95.8665 46.2108C95.7953 46.2108 95.7221 46.2128 95.649 46.2128H94.8113H94.8154Z" fill="#93CC4A"/>
<path fill-rule="evenodd" clip-rule="evenodd" d="M84.4912 22.7424H105.142V9.48846C105.142 4.26944 100.872 -0.00012207 95.6531 -0.00012207H94.8154C89.1369 -0.00012207 84.4912 4.64556 84.4912 10.3261V22.7444V22.7424ZM88.3277 21.488C88.4741 16.8097 88.2525 15.2178 88.3257 9.91135C88.3663 6.95519 89.5903 4.61507 90.8407 3.62697C89.5923 4.61303 86.935 6.95519 86.8944 9.91135C86.8232 15.2178 87.0428 16.8097 86.8964 21.488H88.3277Z" fill="#157540"/>
<g clip-path="url(#clip0_1_135)">
<path d="M28.4456 80.8277C26.0253 81.2528 25.7277 81.4229 25.7277 84.3079V87.5754C25.7277 89.1029 25.7702 90.5485 25.9828 91.6933C23.8175 92.076 19.147 93.0933 15.7093 93.0933C5.73346 93.0933 0 87.0227 0 78.6169C0 69.0632 7.76811 64.2681 16.8117 64.2681C20.2493 64.2681 23.9876 65.1184 25.3876 65.2459C25.4726 67.1135 25.8127 70.3417 26.1103 72.6739L24.4553 72.9715C23.4349 69.3638 21.8649 67.5387 19.232 66.6459C18.2572 66.3058 16.6841 66.1357 15.6243 66.1357C10.486 66.1357 6.62324 70.5937 6.62324 77.8941C6.62324 85.1946 9.25614 91.2682 16.2165 91.2682C17.0668 91.2682 18.1691 91.1406 18.9344 90.673C19.5721 90.2903 19.9122 89.5706 19.9122 88.2526V84.5174C19.9122 81.5444 19.317 81.2498 15.7518 80.8247V79.2546H28.4456V80.8247V80.8277Z" fill="#157540"/>
<path d="M41.9867 92.4617H30.7779V91.0192C33.0282 90.7641 33.2407 90.5516 33.2407 88.0037V78.705C33.2407 76.5823 33.0707 76.3697 31.0755 75.9446V74.6297C33.7084 74.332 36.0862 73.8219 38.7161 73.0171V77.6027C40.6262 74.6722 42.1537 73.1022 43.8968 73.1022C45.4669 73.1022 46.6573 74.165 46.6573 75.65C46.6573 77.7302 45.1723 78.9176 44.492 79.2577C43.8968 79.5128 43.4717 79.3002 43.1771 79.0452C42.4544 78.4499 41.9047 77.7727 41.1819 77.7727C40.5442 77.7727 39.4844 78.3254 38.7191 79.938V88.0037C38.7191 90.5516 39.0167 90.6791 41.9867 91.0192V92.4617Z" fill="#157540"/>
<path d="M64.7839 88.3013C62.1935 92.1216 58.7983 92.9719 57.0157 92.9719C51.3278 92.9719 48.0997 88.7689 48.0997 83.7157C48.0997 80.7427 49.4997 77.8152 51.2853 76.0752C53.1955 74.165 55.5733 73.1021 57.9086 73.1021C62.069 73.1021 64.957 76.5398 64.9144 80.023C64.9144 80.7457 64.8719 81.4655 64.3617 81.593C63.554 81.8056 57.5684 82.1032 53.4506 82.2733C53.6206 86.7738 56.126 89.0666 59.181 89.0666C60.836 89.0666 62.4911 88.4713 64.0216 87.1564L64.7869 88.3043L64.7839 88.3013ZM57.0583 74.8422C55.3607 74.8422 53.9152 76.8374 53.6631 80.193C55.4032 80.1505 57.0157 80.108 58.8014 80.0655C59.3966 80.023 59.6517 79.938 59.6517 79.2152C59.6942 77.0925 58.7163 74.8422 57.0613 74.8422H57.0583Z" fill="#157540"/>
<path d="M84.6536 88.3013C82.0632 92.1216 78.6681 92.9719 76.8855 92.9719C71.1976 92.9719 67.9695 88.7689 67.9695 83.7157C67.9695 80.7427 69.3694 77.8152 71.1551 76.0752C73.0652 74.165 75.443 73.1021 77.7783 73.1021C81.9387 73.1021 84.8267 76.5398 84.7842 80.023C84.7842 80.7457 84.7417 81.4655 84.2315 81.593C83.4237 81.8056 77.4382 82.1032 73.3203 82.2733C73.4904 86.7738 75.9957 89.0666 79.0507 89.0666C80.7058 89.0666 82.3608 88.4713 83.8914 87.1564L84.6566 88.3043L84.6536 88.3013ZM76.928 74.8422C75.2304 74.8422 73.7849 76.8374 73.5329 80.193C75.273 80.1505 76.8855 80.108 78.6711 80.0655C79.2663 80.023 79.5214 79.938 79.5214 79.2152C79.5639 77.0925 78.5861 74.8422 76.931 74.8422H76.928Z" fill="#157540"/>
<path d="M99.5126 92.4616V91.0191C101.295 90.764 101.423 90.594 101.423 87.6665V80.4055C101.423 77.39 99.9377 76.4577 98.4497 76.4577C97.3473 76.4577 96.412 76.8829 95.2641 77.7301V88.0036C95.2641 90.594 95.4342 90.764 97.1742 91.0191V92.4616H87.3259V91.0191C89.5337 90.6365 89.7888 90.594 89.7888 87.8335V79.0025C89.7888 76.4547 89.4486 76.3271 87.581 75.9445V74.5871C90.0439 74.2894 92.9713 73.7368 95.3491 72.9745C95.3066 73.5697 95.2641 75.0547 95.2641 76.0326C96.1144 75.4374 97.0042 74.8027 97.982 74.2075C99.2544 73.4422 100.062 73.1051 101.292 73.1051C104.73 73.1051 106.895 75.6105 106.895 79.9409V87.9641C106.895 90.597 107.15 90.7246 109.188 91.0222V92.4646H99.5095L99.5126 92.4616Z" fill="#157540"/>
<path d="M123.837 64.8664C129.27 64.8664 133.263 66.0143 135.978 68.5591C138.144 70.5543 139.799 73.5273 139.799 77.8152C139.799 82.6984 137.761 86.4337 134.49 88.8965C131.35 91.2743 127.314 92.4617 122.477 92.4617H110.8V90.8917C114.025 90.6366 114.408 90.2539 114.408 86.7313V70.5998C114.408 67.0346 113.94 66.6945 110.8 66.4394V64.8694H123.834L123.837 64.8664ZM120.315 86.4337C120.315 89.4492 121.08 90.4665 124.177 90.4665C129.908 90.4665 133.221 86.4762 133.221 78.453C133.221 74.4201 132.119 70.8974 130.163 69.0693C128.38 67.2867 126.173 66.6915 123.327 66.6915C121.757 66.6915 121.034 67.0316 120.779 67.2867C120.397 67.6693 120.312 68.389 120.312 69.622V86.4337H120.315Z" fill="#93CC4A"/>
<path d="M153.555 73.1021C159.541 73.1021 163.319 77.6027 163.319 82.6954C163.319 89.5312 158.393 92.9688 153.385 92.9688C146.975 92.9688 143.324 88.1282 143.324 83.163C143.324 76.6673 148.675 73.1021 153.555 73.1021ZM153.048 74.7997C151.223 74.7997 149.44 76.7099 149.44 81.9331C149.44 87.1564 151.181 91.2318 153.856 91.2318C155.468 91.2318 157.209 90.1294 157.209 83.9313C157.209 77.7332 155.681 74.8027 153.048 74.8027V74.7997Z" fill="#93CC4A"/>
<path d="M178.096 79.1301C176.993 76.1571 175.548 74.7996 173.553 74.7996C172.365 74.7996 171.302 75.6499 171.302 77.0499C171.302 78.5349 172.365 79.3427 174.57 80.3175C178.008 81.845 180.343 83.2905 180.343 86.6431C180.343 90.8886 176.31 92.9688 172.617 92.9688C170.409 92.9688 168.117 92.1184 167.227 91.6963C167.057 90.7215 166.674 87.791 166.547 86.306L167.947 86.0509C168.839 88.7264 170.58 91.2317 173.337 91.2317C174.949 91.2317 175.757 90.2569 175.757 89.024C175.757 87.709 175.12 86.7312 172.49 85.4588C169.687 84.1013 166.972 82.6133 166.972 79.0906C166.972 75.5679 169.732 73.1051 174.233 73.1051C176.27 73.1051 177.841 73.5303 178.818 73.7428C178.946 74.8877 179.329 77.6056 179.499 78.7535L178.099 79.1362L178.096 79.1301Z" fill="#93CC4A"/>
<path d="M199.872 88.3013C197.282 92.1216 193.887 92.9719 192.104 92.9719C186.416 92.9719 183.188 88.7689 183.188 83.7157C183.188 80.7427 184.588 77.8152 186.374 76.0752C188.284 74.165 190.662 73.1021 192.997 73.1021C197.158 73.1021 200.046 76.5398 200.003 80.023C200.003 80.7457 199.961 81.4655 199.45 81.593C198.643 81.8056 192.657 82.1032 188.539 82.2733C188.709 86.7738 191.215 89.0666 194.27 89.0666C195.925 89.0666 197.58 88.4713 199.11 87.1564L199.875 88.3043L199.872 88.3013ZM192.147 74.8422C190.449 74.8422 189.004 76.8374 188.752 80.193C190.492 80.1505 192.104 80.108 193.89 80.0655C194.485 80.023 194.74 79.938 194.74 79.2152C194.783 77.0925 193.805 74.8422 192.15 74.8422H192.147Z" fill="#93CC4A"/>
<path d="M21.6238 101.536H22.6927L25.2224 108.505H24.1868L23.4793 106.416H20.7219L19.9687 108.505H19L21.6238 101.536ZM23.1756 105.651L22.1188 102.571L20.9952 105.651H23.1786H23.1756Z" fill="#858C79"/>
<path d="M26.1699 101.873C26.3703 101.581 26.7529 101.435 27.3238 101.435C27.3785 101.435 27.4332 101.435 27.4909 101.441C27.5486 101.445 27.6123 101.451 27.6852 101.457V102.234C27.5972 102.228 27.5304 102.225 27.4909 102.222C27.4514 102.222 27.4119 102.222 27.3785 102.222C27.1173 102.222 26.9594 102.289 26.9078 102.422C26.8562 102.556 26.8319 102.899 26.8319 103.449H27.6852V104.123H26.8319V108.508H25.9877V104.123H25.2801V103.449H25.9877V102.653C25.9998 102.298 26.0605 102.04 26.1729 101.876L26.1699 101.873Z" fill="#858C79"/>
<path d="M28.5051 101.873C28.7056 101.581 29.0882 101.435 29.6591 101.435C29.7138 101.435 29.7684 101.435 29.8261 101.441C29.8838 101.445 29.9476 101.451 30.0205 101.457V102.234C29.9324 102.228 29.8656 102.225 29.8261 102.222C29.7867 102.222 29.7472 102.222 29.7138 102.222C29.4526 102.222 29.2947 102.289 29.2431 102.422C29.1915 102.556 29.1672 102.899 29.1672 103.449H30.0205V104.123H29.1672V108.508H28.3229V104.123H27.6154V103.449H28.3229V102.653C28.3351 102.298 28.3958 102.04 28.5082 101.876L28.5051 101.873Z" fill="#858C79"/>
<path d="M34.2933 103.932C34.7427 104.369 34.9675 105.01 34.9675 105.857C34.9675 106.704 34.7701 107.351 34.3723 107.885C33.9775 108.42 33.361 108.687 32.5289 108.687C31.8335 108.687 31.2838 108.45 30.8739 107.98C30.4669 107.506 30.2604 106.874 30.2604 106.076C30.2604 105.222 30.476 104.542 30.9042 104.038C31.3355 103.531 31.9124 103.279 32.6382 103.279C33.2881 103.279 33.8378 103.497 34.2872 103.932H34.2933ZM33.7619 107.309C33.9684 106.88 34.0746 106.404 34.0746 105.878C34.0746 105.404 33.9987 105.019 33.8499 104.721C33.6131 104.253 33.2031 104.02 32.62 104.02C32.1038 104.02 31.7272 104.22 31.4934 104.618C31.2595 105.016 31.1411 105.496 31.1411 106.057C31.1411 106.619 31.2595 107.047 31.4934 107.409C31.7272 107.77 32.1007 107.949 32.6109 107.949C33.1697 107.949 33.5554 107.734 33.7619 107.309Z" fill="#858C79"/>
<path d="M35.8451 103.424H36.6559V104.302C36.7227 104.132 36.8837 103.922 37.1448 103.679C37.403 103.434 37.7036 103.312 38.0407 103.312C38.0559 103.312 38.0832 103.312 38.1227 103.318C38.1591 103.321 38.2259 103.327 38.317 103.336V104.238C38.2654 104.229 38.2199 104.223 38.1773 104.22C38.1348 104.22 38.0893 104.214 38.0377 104.214C37.6064 104.214 37.2754 104.354 37.0446 104.63C36.8138 104.906 36.6984 105.225 36.6984 105.587V108.508H35.8451V103.427V103.424Z" fill="#858C79"/>
<path d="M41.6544 103.582C41.8063 103.677 41.9763 103.844 42.1707 104.08V101.514H42.9906V108.508H42.2223V107.8C42.0249 108.113 41.7881 108.341 41.5178 108.478C41.2475 108.614 40.9347 108.687 40.5855 108.687C40.0206 108.687 39.5317 108.45 39.1187 107.974C38.7057 107.497 38.4992 106.865 38.4992 106.073C38.4992 105.332 38.6875 104.691 39.064 104.147C39.4406 103.604 39.9781 103.333 40.6796 103.333C41.0683 103.333 41.3902 103.415 41.6544 103.579V103.582ZM39.7473 107.394C39.9781 107.761 40.3456 107.943 40.8527 107.943C41.2475 107.943 41.5694 107.773 41.8215 107.433C42.0735 107.093 42.2011 106.604 42.2011 105.969C42.2011 105.335 42.0705 104.852 41.8093 104.542C41.5481 104.232 41.2262 104.08 40.8406 104.08C40.4124 104.08 40.0662 104.244 39.799 104.572C39.5317 104.9 39.4011 105.386 39.4011 106.024C39.4011 106.568 39.5165 107.023 39.7443 107.391L39.7473 107.394Z" fill="#858C79"/>
<path d="M46.7957 105.432C46.9931 105.407 47.1237 105.325 47.1905 105.186C47.227 105.11 47.2482 105.001 47.2482 104.858C47.2482 104.566 47.145 104.354 46.9385 104.223C46.732 104.093 46.4344 104.026 46.0517 104.026C45.6053 104.026 45.2895 104.147 45.1042 104.387C45.001 104.521 44.9312 104.718 44.9008 104.982H44.1051C44.1203 104.354 44.3238 103.916 44.7155 103.67C45.1042 103.424 45.5598 103.303 46.073 103.303C46.6712 103.303 47.1541 103.418 47.5276 103.643C47.8981 103.871 48.0833 104.226 48.0833 104.706V107.633C48.0833 107.721 48.1016 107.794 48.138 107.846C48.1744 107.901 48.2504 107.928 48.3688 107.928C48.4052 107.928 48.4508 107.928 48.4963 107.922C48.5419 107.916 48.5935 107.91 48.6482 107.901V108.532C48.5146 108.569 48.4143 108.593 48.3445 108.602C48.2747 108.611 48.1805 108.617 48.059 108.617C47.7645 108.617 47.5519 108.514 47.4183 108.305C47.3484 108.195 47.2998 108.037 47.2725 107.834C47.0994 108.062 46.8474 108.259 46.5224 108.426C46.1975 108.593 45.8361 108.678 45.4444 108.678C44.9737 108.678 44.588 108.535 44.2904 108.25C43.9928 107.964 43.8409 107.606 43.8409 107.175C43.8409 106.704 43.9867 106.34 44.2813 106.082C44.5758 105.823 44.9615 105.663 45.4383 105.602L46.7988 105.432H46.7957ZM44.998 107.74C45.1771 107.882 45.3927 107.952 45.6387 107.952C45.9394 107.952 46.2309 107.882 46.5133 107.743C46.9871 107.512 47.2239 107.135 47.2239 106.61V105.924C47.1207 105.991 46.984 106.045 46.82 106.091C46.656 106.136 46.4951 106.167 46.3372 106.185L45.8209 106.252C45.5112 106.294 45.2773 106.358 45.1225 106.446C44.8583 106.595 44.7277 106.832 44.7277 107.157C44.7277 107.403 44.8188 107.597 44.998 107.74Z" fill="#858C79"/>
<path d="M49.213 101.514H50.042V104.044C50.2303 103.801 50.452 103.616 50.7132 103.485C50.9743 103.355 51.2568 103.294 51.5604 103.294C52.1951 103.294 52.7114 103.513 53.1062 103.947C53.5009 104.381 53.6983 105.022 53.6983 105.872C53.6983 106.677 53.504 107.342 53.1122 107.873C52.7205 108.405 52.1799 108.669 51.4876 108.669C51.0988 108.669 50.7739 108.575 50.5067 108.39C50.3488 108.28 50.1787 108.101 49.9965 107.858V108.508H49.21V101.514H49.213ZM52.4775 107.363C52.7083 106.996 52.8237 106.513 52.8237 105.912C52.8237 105.377 52.7083 104.934 52.4775 104.581C52.2467 104.229 51.9097 104.056 51.4602 104.056C51.0685 104.056 50.7284 104.199 50.4338 104.487C50.1392 104.776 49.9935 105.25 49.9935 105.912C49.9935 106.388 50.0542 106.777 50.1757 107.075C50.4004 107.633 50.8225 107.916 51.4359 107.916C51.9006 107.916 52.2467 107.734 52.4775 107.366V107.363Z" fill="#858C79"/>
<path d="M54.5183 101.536H55.3716V108.505H54.5183V101.536Z" fill="#858C79"/>
<path d="M59.5958 103.564C59.9329 103.734 60.188 103.953 60.3641 104.22C60.5342 104.475 60.6466 104.776 60.7043 105.116C60.7559 105.35 60.7802 105.723 60.7802 106.236H57.0844C57.0996 106.753 57.2211 107.169 57.4458 107.482C57.6705 107.794 58.0228 107.949 58.4965 107.949C58.9399 107.949 59.2922 107.8 59.5564 107.506C59.7052 107.336 59.8084 107.135 59.8691 106.911H60.7103C60.6891 107.099 60.6132 107.305 60.4886 107.533C60.3641 107.764 60.2244 107.949 60.0696 108.095C59.8114 108.347 59.4926 108.52 59.113 108.608C58.9095 108.66 58.6787 108.684 58.4206 108.684C57.792 108.684 57.2605 108.453 56.8232 107.995C56.3859 107.536 56.1673 106.889 56.1673 106.06C56.1673 105.231 56.3859 104.581 56.8263 104.071C57.2666 103.561 57.8406 103.306 58.5512 103.306C58.9095 103.306 59.2557 103.391 59.5928 103.561L59.5958 103.564ZM59.9025 105.559C59.8691 105.189 59.7872 104.894 59.6626 104.672C59.4318 104.263 59.0431 104.056 58.4996 104.056C58.1108 104.056 57.7829 104.199 57.5217 104.481C57.2575 104.764 57.1178 105.125 57.1026 105.559H59.9025Z" fill="#858C79"/>
<path d="M64.3787 107.473H65.3718V108.508H64.3787V107.473Z" fill="#858C79"/>
<path d="M69.9148 106.258C69.9361 106.653 70.0272 106.975 70.1851 107.22C70.4857 107.682 71.0202 107.913 71.7794 107.913C72.1195 107.913 72.4323 107.861 72.7117 107.761C73.2553 107.564 73.5256 107.214 73.5256 106.707C73.5256 106.328 73.4102 106.057 73.1824 105.896C72.9486 105.739 72.5842 105.602 72.0892 105.483L71.1751 105.271C70.5768 105.131 70.1547 104.979 69.9057 104.809C69.4775 104.518 69.2619 104.083 69.2619 103.503C69.2619 102.878 69.4714 102.365 69.8936 101.961C70.3157 101.56 70.9139 101.359 71.6853 101.359C72.3959 101.359 73.0002 101.536 73.4982 101.888C73.9963 102.24 74.2453 102.805 74.2453 103.579H73.3585C73.313 103.206 73.2158 102.92 73.067 102.72C72.7907 102.356 72.323 102.173 71.661 102.173C71.1265 102.173 70.7439 102.292 70.51 102.526C70.2762 102.759 70.1608 103.033 70.1608 103.343C70.1608 103.683 70.2974 103.935 70.5738 104.093C70.756 104.193 71.1629 104.32 71.8007 104.472L72.7481 104.694C73.2037 104.8 73.5559 104.949 73.8049 105.134C74.2331 105.459 74.4487 105.933 74.4487 106.552C74.4487 107.324 74.1754 107.876 73.6258 108.207C73.0792 108.538 72.4414 108.705 71.7156 108.705C70.8714 108.705 70.2094 108.484 69.7296 108.04C69.2498 107.6 69.0159 107.005 69.025 106.252H69.9118L69.9148 106.258Z" fill="#858C79"/>
<path d="M76.3255 103.425V106.798C76.3255 107.057 76.365 107.269 76.447 107.433C76.5958 107.737 76.8721 107.889 77.273 107.889C77.853 107.889 78.2478 107.621 78.4573 107.093C78.5727 106.807 78.6274 106.419 78.6274 105.921V103.425H79.4807V108.505H78.6729L78.682 107.755C78.5727 107.949 78.4391 108.11 78.2781 108.244C77.9593 108.511 77.5706 108.642 77.115 108.642C76.4044 108.642 75.9185 108.399 75.6635 107.916C75.5238 107.658 75.4539 107.312 75.4539 106.877V103.421H76.3285L76.3255 103.425Z" fill="#858C79"/>
<path d="M81.1904 106.914C81.2147 107.199 81.2876 107.418 81.4091 107.57C81.6277 107.846 82.0104 107.983 82.5509 107.983C82.8728 107.983 83.1583 107.913 83.4043 107.776C83.6503 107.64 83.7717 107.427 83.7717 107.138C83.7717 106.92 83.6745 106.753 83.4772 106.64C83.3526 106.571 83.1036 106.492 82.7331 106.397L82.0438 106.227C81.6035 106.121 81.2785 106 81.069 105.866C80.6955 105.635 80.5102 105.316 80.5102 104.906C80.5102 104.427 80.6863 104.038 81.0356 103.74C81.3878 103.443 81.8585 103.294 82.4507 103.294C83.2251 103.294 83.7869 103.519 84.1301 103.968C84.3457 104.254 84.4489 104.56 84.4428 104.888H83.6351C83.6199 104.697 83.55 104.521 83.4255 104.366C83.2251 104.141 82.8759 104.032 82.3809 104.032C82.0499 104.032 81.8008 104.093 81.6308 104.217C81.4607 104.339 81.3757 104.503 81.3757 104.703C81.3757 104.925 81.4881 105.101 81.7097 105.231C81.8373 105.31 82.0286 105.38 82.2807 105.441L82.8546 105.578C83.4802 105.726 83.8993 105.869 84.1118 106.009C84.4428 106.227 84.6099 106.571 84.6099 107.038C84.6099 107.506 84.4368 107.882 84.0875 108.21C83.7383 108.538 83.2099 108.702 82.4993 108.702C81.734 108.702 81.1935 108.529 80.8746 108.186C80.5558 107.843 80.3857 107.418 80.3644 106.911H81.1844L81.1904 106.914Z" fill="#858C79"/>
<path d="M85.5178 102.006H86.3803V103.425H87.1911V104.123H86.3803V107.439C86.3803 107.615 86.441 107.734 86.5595 107.794C86.6263 107.831 86.7356 107.846 86.8905 107.846C86.9299 107.846 86.9755 107.846 87.0241 107.846C87.0727 107.846 87.1273 107.837 87.1911 107.831V108.508C87.0939 108.535 86.9907 108.557 86.8844 108.569C86.7781 108.581 86.6627 108.587 86.5412 108.587C86.1434 108.587 85.8731 108.484 85.7304 108.28C85.5877 108.077 85.5178 107.813 85.5178 107.485V104.12H84.8285V103.422H85.5178V102.003V102.006Z" fill="#858C79"/>
<path d="M90.5772 105.432C90.7746 105.407 90.9051 105.325 90.972 105.186C91.0084 105.11 91.0297 105.001 91.0297 104.858C91.0297 104.566 90.9264 104.354 90.7199 104.223C90.5134 104.093 90.2158 104.026 89.8332 104.026C89.3868 104.026 89.0709 104.147 88.8857 104.387C88.7824 104.521 88.7126 104.718 88.6822 104.982H87.8866C87.9018 104.354 88.1052 103.916 88.497 103.67C88.8857 103.424 89.3412 103.303 89.8544 103.303C90.4527 103.303 90.9355 103.418 91.309 103.643C91.6795 103.871 91.8648 104.226 91.8648 104.706V107.633C91.8648 107.721 91.883 107.794 91.9194 107.846C91.9559 107.901 92.0318 107.928 92.1502 107.928C92.1867 107.928 92.2322 107.928 92.2778 107.922C92.3233 107.916 92.375 107.91 92.4296 107.901V108.532C92.296 108.569 92.1958 108.593 92.1259 108.602C92.0561 108.611 91.962 108.617 91.8405 108.617C91.5459 108.617 91.3333 108.514 91.1997 108.305C91.1299 108.195 91.0813 108.037 91.054 107.834C90.8809 108.062 90.6288 108.259 90.3039 108.426C89.9789 108.593 89.6175 108.678 89.2258 108.678C88.7551 108.678 88.3694 108.535 88.0718 108.25C87.7742 107.964 87.6224 107.606 87.6224 107.175C87.6224 106.704 87.7681 106.34 88.0627 106.082C88.3573 105.823 88.743 105.663 89.2197 105.602L90.5802 105.432H90.5772ZM88.7764 107.74C88.9555 107.882 89.1711 107.952 89.4171 107.952C89.7178 107.952 90.0093 107.882 90.2917 107.743C90.7655 107.512 91.0023 107.135 91.0023 106.61V105.924C90.8991 105.991 90.7624 106.045 90.5984 106.091C90.4344 106.136 90.2735 106.167 90.1156 106.185L89.5993 106.252C89.2896 106.294 89.0557 106.358 88.9009 106.446C88.6367 106.595 88.5061 106.832 88.5061 107.157C88.5061 107.403 88.5972 107.597 88.7764 107.74Z" fill="#858C79"/>
<path d="M93.0613 101.536H93.9298V102.504H93.0613V101.536ZM93.0613 103.449H93.9298V108.508H93.0613V103.449Z" fill="#858C79"/>
<path d="M95.0261 103.424H95.8369V104.147C96.0768 103.85 96.3319 103.637 96.6022 103.506C96.8694 103.376 97.17 103.312 97.498 103.312C98.2208 103.312 98.7067 103.564 98.9587 104.065C99.0984 104.342 99.1682 104.733 99.1682 105.246V108.505H98.2997V105.301C98.2997 104.991 98.2542 104.742 98.1631 104.551C98.0112 104.235 97.7349 104.077 97.3371 104.077C97.1336 104.077 96.9696 104.099 96.839 104.138C96.6052 104.208 96.3987 104.348 96.2226 104.557C96.0798 104.724 95.9887 104.897 95.9462 105.076C95.9037 105.256 95.8824 105.511 95.8824 105.842V108.505H95.0291V103.424H95.0261Z" fill="#858C79"/>
<path d="M102.961 105.432C103.159 105.407 103.289 105.325 103.356 105.186C103.392 105.11 103.414 105.001 103.414 104.858C103.414 104.566 103.31 104.354 103.104 104.223C102.897 104.093 102.6 104.026 102.217 104.026C101.771 104.026 101.455 104.147 101.27 104.387C101.166 104.521 101.097 104.718 101.066 104.982H100.271C100.286 104.354 100.489 103.916 100.881 103.67C101.27 103.424 101.725 103.303 102.238 103.303C102.837 103.303 103.319 103.418 103.693 103.643C104.064 103.871 104.249 104.226 104.249 104.706V107.633C104.249 107.721 104.267 107.794 104.303 107.846C104.34 107.901 104.416 107.928 104.534 107.928C104.571 107.928 104.616 107.928 104.662 107.922C104.707 107.916 104.759 107.91 104.814 107.901V108.532C104.68 108.569 104.58 108.593 104.51 108.602C104.44 108.611 104.346 108.617 104.224 108.617C103.93 108.617 103.717 108.514 103.584 108.305C103.514 108.195 103.465 108.037 103.438 107.834C103.265 108.062 103.013 108.259 102.688 108.426C102.363 108.593 102.002 108.678 101.61 108.678C101.139 108.678 100.753 108.535 100.456 108.25C100.158 107.964 100.006 107.606 100.006 107.175C100.006 106.704 100.152 106.34 100.447 106.082C100.741 105.823 101.127 105.663 101.604 105.602L102.964 105.432H102.961ZM101.163 107.74C101.343 107.882 101.558 107.952 101.804 107.952C102.105 107.952 102.396 107.882 102.679 107.743C103.152 107.512 103.389 107.135 103.389 106.61V105.924C103.286 105.991 103.149 106.045 102.985 106.091C102.821 106.136 102.661 106.167 102.503 106.185L101.986 106.252C101.677 106.294 101.443 106.358 101.288 106.446C101.024 106.595 100.893 106.832 100.893 107.157C100.893 107.403 100.984 107.597 101.163 107.74Z" fill="#858C79"/>
<path d="M105.375 101.514H106.204V104.044C106.393 103.801 106.614 103.616 106.876 103.485C107.137 103.355 107.419 103.294 107.723 103.294C108.358 103.294 108.874 103.513 109.269 103.947C109.663 104.381 109.861 105.022 109.861 105.872C109.861 106.677 109.666 107.342 109.275 107.873C108.883 108.405 108.342 108.669 107.65 108.669C107.261 108.669 106.936 108.575 106.669 108.39C106.511 108.28 106.341 108.101 106.159 107.858V108.508H105.372V101.514H105.375ZM108.643 107.363C108.874 106.996 108.989 106.513 108.989 105.912C108.989 105.377 108.874 104.934 108.643 104.581C108.412 104.229 108.075 104.056 107.626 104.056C107.234 104.056 106.894 104.199 106.599 104.487C106.305 104.776 106.159 105.25 106.159 105.912C106.159 106.388 106.22 106.777 106.341 107.075C106.566 107.633 106.988 107.916 107.601 107.916C108.066 107.916 108.412 107.734 108.643 107.366V107.363Z" fill="#858C79"/>
<path d="M110.681 101.536H111.534V108.505H110.681V101.536Z" fill="#858C79"/>
<path d="M115.761 103.564C116.098 103.734 116.353 103.953 116.53 104.22C116.7 104.475 116.812 104.776 116.87 105.116C116.921 105.35 116.946 105.723 116.946 106.236H113.25C113.265 106.753 113.386 107.169 113.611 107.482C113.836 107.794 114.188 107.949 114.662 107.949C115.105 107.949 115.458 107.8 115.722 107.506C115.871 107.336 115.974 107.135 116.035 106.911H116.876C116.854 107.099 116.779 107.305 116.654 107.533C116.53 107.764 116.39 107.949 116.235 108.095C115.977 108.347 115.658 108.52 115.278 108.608C115.075 108.66 114.844 108.684 114.586 108.684C113.957 108.684 113.426 108.453 112.989 107.995C112.551 107.536 112.333 106.889 112.333 106.06C112.333 105.231 112.551 104.581 112.992 104.071C113.432 103.561 114.006 103.306 114.717 103.306C115.075 103.306 115.421 103.391 115.758 103.561L115.761 103.564ZM116.068 105.559C116.035 105.189 115.953 104.894 115.828 104.672C115.597 104.263 115.209 104.056 114.665 104.056C114.276 104.056 113.948 104.199 113.687 104.481C113.423 104.764 113.283 105.125 113.268 105.559H116.068Z" fill="#858C79"/>
<path d="M120.541 107.473H121.534V108.508H120.541V107.473Z" fill="#858C79"/>
<path d="M125.552 101.536H130.386V102.389H126.496V104.506H129.919V105.335H126.496V108.505H125.552V101.536Z" fill="#858C79"/>
<path d="M134.772 103.932C135.221 104.369 135.446 105.01 135.446 105.857C135.446 106.704 135.248 107.351 134.851 107.885C134.456 108.42 133.839 108.687 133.007 108.687C132.312 108.687 131.762 108.45 131.352 107.98C130.945 107.506 130.739 106.874 130.739 106.076C130.739 105.222 130.954 104.542 131.383 104.038C131.814 103.531 132.391 103.279 133.117 103.279C133.766 103.279 134.316 103.497 134.765 103.932H134.772ZM134.243 107.309C134.45 106.88 134.556 106.404 134.556 105.878C134.556 105.404 134.48 105.019 134.331 104.721C134.094 104.253 133.684 104.02 133.101 104.02C132.585 104.02 132.209 104.22 131.975 104.618C131.741 105.016 131.622 105.496 131.622 106.057C131.622 106.619 131.741 107.047 131.975 107.409C132.209 107.77 132.582 107.949 133.092 107.949C133.651 107.949 134.037 107.734 134.243 107.309Z" fill="#858C79"/>
<path d="M136.323 103.424H137.134V104.302C137.201 104.132 137.362 103.922 137.623 103.679C137.881 103.434 138.182 103.312 138.519 103.312C138.534 103.312 138.561 103.312 138.601 103.318C138.637 103.321 138.704 103.327 138.795 103.336V104.238C138.744 104.229 138.698 104.223 138.656 104.22C138.613 104.22 138.568 104.214 138.516 104.214C138.085 104.214 137.754 104.354 137.523 104.63C137.292 104.906 137.177 105.225 137.177 105.587V108.508H136.323V103.427V103.424Z" fill="#858C79"/>
<path d="M142.051 101.536H147.11V102.389H142.974V104.506H146.797V105.313H142.974V107.676H147.183V108.505H142.054V101.536H142.051Z" fill="#858C79"/>
<path d="M148.556 103.424L149.913 107.561L151.328 103.424H152.263L150.35 108.505H149.439L147.566 103.424H148.559H148.556Z" fill="#858C79"/>
<path d="M155.938 103.564C156.275 103.734 156.53 103.953 156.706 104.22C156.876 104.475 156.989 104.776 157.046 105.116C157.098 105.35 157.122 105.723 157.122 106.236H153.427C153.442 106.753 153.563 107.169 153.788 107.482C154.013 107.794 154.365 107.949 154.839 107.949C155.282 107.949 155.634 107.8 155.899 107.506C156.047 107.336 156.151 107.135 156.211 106.911H157.053C157.031 107.099 156.955 107.305 156.831 107.533C156.706 107.764 156.567 107.949 156.412 108.095C156.154 108.347 155.835 108.52 155.455 108.608C155.252 108.66 155.021 108.684 154.763 108.684C154.134 108.684 153.603 108.453 153.165 107.995C152.728 107.536 152.509 106.889 152.509 106.06C152.509 105.231 152.728 104.581 153.168 104.071C153.609 103.561 154.183 103.306 154.893 103.306C155.252 103.306 155.598 103.391 155.935 103.561L155.938 103.564ZM156.245 105.559C156.211 105.189 156.129 104.894 156.005 104.672C155.774 104.263 155.385 104.056 154.842 104.056C154.453 104.056 154.125 104.199 153.864 104.481C153.6 104.764 153.46 105.125 153.445 105.559H156.245Z" fill="#858C79"/>
<path d="M158.033 103.424H158.844V104.302C158.911 104.132 159.072 103.922 159.333 103.679C159.591 103.434 159.892 103.312 160.229 103.312C160.244 103.312 160.272 103.312 160.311 103.318C160.347 103.321 160.414 103.327 160.505 103.336V104.238C160.454 104.229 160.408 104.223 160.366 104.22C160.323 104.22 160.278 104.214 160.226 104.214C159.795 104.214 159.464 104.354 159.233 104.63C159.002 104.906 158.887 105.225 158.887 105.587V108.508H158.033V103.427V103.424Z" fill="#858C79"/>
<path d="M164.228 103.424H165.173C165.051 103.749 164.784 104.493 164.371 105.657C164.061 106.531 163.8 107.242 163.594 107.791C163.102 109.088 162.753 109.878 162.552 110.163C162.352 110.449 162.002 110.591 161.511 110.591C161.392 110.591 161.298 110.585 161.234 110.576C161.17 110.567 161.088 110.549 160.994 110.524V109.747C161.143 109.787 161.249 109.814 161.316 109.823C161.383 109.832 161.441 109.838 161.492 109.838C161.65 109.838 161.766 109.811 161.842 109.759C161.914 109.708 161.978 109.644 162.03 109.568C162.045 109.544 162.103 109.413 162.2 109.179C162.297 108.945 162.37 108.772 162.412 108.66L160.533 103.428H161.501L162.862 107.567L164.235 103.428L164.228 103.424Z" fill="#858C79"/>
<path d="M169.397 103.932C169.846 104.369 170.071 105.01 170.071 105.857C170.071 106.704 169.874 107.351 169.476 107.885C169.081 108.42 168.465 108.687 167.633 108.687C166.937 108.687 166.388 108.45 165.978 107.98C165.571 107.506 165.364 106.874 165.364 106.076C165.364 105.222 165.58 104.542 166.008 104.038C166.439 103.531 167.016 103.279 167.742 103.279C168.392 103.279 168.942 103.497 169.391 103.932H169.397ZM168.869 107.309C169.075 106.88 169.181 106.404 169.181 105.878C169.181 105.404 169.106 105.019 168.957 104.721C168.72 104.253 168.31 104.02 167.727 104.02C167.211 104.02 166.834 104.22 166.6 104.618C166.366 105.016 166.248 105.496 166.248 106.057C166.248 106.619 166.366 107.047 166.6 107.409C166.834 107.77 167.208 107.949 167.718 107.949C168.276 107.949 168.662 107.734 168.869 107.309Z" fill="#858C79"/>
<path d="M170.928 103.424H171.738V104.147C171.978 103.85 172.233 103.637 172.504 103.506C172.771 103.376 173.072 103.312 173.4 103.312C174.122 103.312 174.608 103.564 174.86 104.065C175 104.342 175.07 104.733 175.07 105.246V108.505H174.201V105.301C174.201 104.991 174.156 104.742 174.065 104.551C173.913 104.235 173.636 104.077 173.239 104.077C173.035 104.077 172.871 104.099 172.741 104.138C172.507 104.208 172.3 104.348 172.124 104.557C171.981 104.724 171.89 104.897 171.848 105.076C171.805 105.256 171.784 105.511 171.784 105.842V108.505H170.931V103.424H170.928Z" fill="#858C79"/>
<path d="M179.276 103.564C179.613 103.734 179.868 103.953 180.044 104.22C180.214 104.475 180.326 104.776 180.384 105.116C180.436 105.35 180.46 105.723 180.46 106.236H176.764C176.779 106.753 176.901 107.169 177.126 107.482C177.35 107.794 177.703 107.949 178.176 107.949C178.62 107.949 178.972 107.8 179.236 107.506C179.385 107.336 179.488 107.135 179.549 106.911H180.39C180.369 107.099 180.293 107.305 180.169 107.533C180.044 107.764 179.904 107.949 179.749 108.095C179.491 108.347 179.172 108.52 178.793 108.608C178.589 108.66 178.359 108.684 178.1 108.684C177.472 108.684 176.94 108.453 176.503 107.995C176.066 107.536 175.847 106.889 175.847 106.06C175.847 105.231 176.066 104.581 176.506 104.071C176.946 103.561 177.52 103.306 178.231 103.306C178.589 103.306 178.936 103.391 179.273 103.561L179.276 103.564ZM179.582 105.559C179.549 105.189 179.467 104.894 179.343 104.672C179.112 104.263 178.723 104.056 178.179 104.056C177.791 104.056 177.463 104.199 177.202 104.481C176.937 104.764 176.798 105.125 176.783 105.559H179.582Z" fill="#858C79"/>
</g>
<defs>
<clipPath id="clip0_1_135">
<rect width="201" height="47" fill="white" transform="translate(0 64)"/>
</clipPath>
</defs>
</svg>
